<?xml version="1.0" encoding="UTF-8" standalone="no"?>
<svg
   viewBox="0 0 24 24"
   version="1.1"
   id="svg1"
   sodipodi:docname="poke-budgy.svg"
   xml:space="preserve"
   inkscape:version="1.4 (e7c3feb100, 2024-10-09)"
   inkscape:export-filename="poke-budgy.png"
   inkscape:export-xdpi="4096"
   inkscape:export-ydpi="4096"
   xmlns:inkscape="http://www.inkscape.org/namespaces/inkscape"
   xmlns:sodipodi="http://sodipodi.sourceforge.net/DTD/sodipodi-0.dtd"
   xmlns="http://www.w3.org/2000/svg"
   xmlns:svg="http://www.w3.org/2000/svg"><defs
     id="defs1" /><sodipodi:namedview
     id="namedview1"
     pagecolor="#ffffff"
     bordercolor="#000000"
     borderopacity="0.25"
     inkscape:showpageshadow="2"
     inkscape:pageopacity="0.0"
     inkscape:pagecheckerboard="0"
     inkscape:deskcolor="#d1d1d1"
     showgrid="true"
     inkscape:zoom="22.537078"
     inkscape:cx="8.341809"
     inkscape:cy="12.778941"
     inkscape:window-width="1536"
     inkscape:window-height="904"
     inkscape:window-x="0"
     inkscape:window-y="0"
     inkscape:window-maximized="1"
     inkscape:current-layer="svg1"><inkscape:grid
       id="grid1"
       units="px"
       originx="0"
       originy="0"
       spacingx="1"
       spacingy="1"
       empcolor="#0099e5"
       empopacity="0.30196078"
       color="#0099e5"
       opacity="0.14901961"
       empspacing="5"
       enabled="true"
       visible="true" /></sodipodi:namedview><path
     d="m 7.3078698,11.025357 c -4.061e-4,0.01805 -0.00141,0.03601 -0.00141,0.05427 v 2.911399 c 0,0.693188 0.3116981,1.038107 0.6388934,1.210616 l 4.0094978,2.113643 4.129739,-2.115287 c 0.36862,-0.188731 0.6375,-0.508701 0.6375,-1.208972 V 11.07963 c 0,-0.01826 -0.001,-0.03623 -0.0016,-0.05428 z"
     style="fill:#232323;fill-opacity:0;stroke-width:0.776408;stroke-linejoin:round"
     id="path10" /><path
     d="M 7.3064717,8.0086908 V 10.689807 H 16.722097 V 8.0086908 Z"
     style="fill:#232323;fill-opacity:0;stroke-width:0.776408;stroke-linejoin:round"
     id="path8" /><path
     d="m 7.0254706,9.967633 c -0.00666,0.088369 -0.011185,0.178535 -0.011185,0.27078 v 3.282753 c 0,0.925612 0.4056255,1.476521 0.8108492,1.717418 l 4.0682162,2.418483 c 0.03761,0.02294 0.0808,0.02362 0.118831,0.0019 l 4.188456,-2.418483 c 0.443479,-0.256024 0.813644,-0.801669 0.813644,-1.719273 v -3.282755 c 0,-0.08899 -0.0036,-0.176112 -0.0098,-0.2615067 -0.01416,0.1112587 -0.08908,0.2003027 -0.176149,0.2003027 h -0.107648 c 4.14e-4,0.02034 0.0016,0.04062 0.0016,0.0612 v 3.282752 c 0,0.789593 -0.268881,1.150376 -0.637496,1.36318 l -4.129738,2.3851 L 7.9455514,14.88624 C 7.6182048,14.691725 7.3065069,14.302811 7.3065069,13.521205 v -3.282752 c 0,-0.0206 9.866e-4,-0.04086 0.00141,-0.0612 H 7.2016232 c -0.089461,0 -0.165079,-0.09404 -0.1761501,-0.2095755 z"
     style="fill:#cdb3de;stroke-width:0.824438;stroke-linejoin:round"
     id="path9" /><path
     d="m 7.2016207,7.6747845 c -0.096727,0 -0.1789462,0.072925 -0.1789462,0.1587186 v 2.2084209 c 0,0.08579 0.082219,0.158717 0.1789462,0.158717 h 9.6267263 c 0.09673,0 0.178946,-0.07292 0.178946,-0.158717 V 7.8335031 c 0,-0.085793 -0.08222,-0.1587185 -0.178946,-0.1587186 z m 0.104851,0.2517178 H 16.722097 V 9.9476851 H 7.3064717 Z"
     style="fill:#cdb3de;stroke-width:0.674117;stroke-linejoin:round"
     id="path7" /><path
     d="m 9.6757122,13.644201 0.1307313,0.02153 1.1948735,-1.40586 c -0.04708,-0.199958 -0.0028,-0.427603 0.135961,-0.587569 0.203939,-0.243026 0.533383,-0.243026 0.737322,0 0.138576,0.159966 0.183024,0.387611 0.13596,0.587569 l 0.671958,0.790604 0.130733,-0.02153 c 0.04707,0 0.09151,0 0.130733,0.02153 l 0.933417,-1.098231 c -0.0183,-0.04614 -0.0183,-0.09844 -0.0183,-0.153814 a 0.52292478,0.61525568 0 0 1 0.522924,-0.615256 0.52292478,0.61525568 0 0 1 0.522926,0.615256 0.52292478,0.61525568 0 0 1 -0.522926,0.615256 c -0.04707,0 -0.09151,0 -0.13073,-0.02153 l -0.933421,1.098232 c 0.01831,0.04614 0.01831,0.09844 0.01831,0.153814 a 0.52292478,0.61525568 0 0 1 -0.522925,0.615255 0.52292478,0.61525568 0 0 1 -0.522925,-0.615256 l 0.01831,-0.153814 -0.671958,-0.790603 c -0.08366,0.02153 -0.177795,0.02153 -0.261463,0 l -1.194873,1.405858 0.0183,0.153815 A 0.52292478,0.61525568 0 0 1 9.6757106,14.874712 0.52292478,0.61525568 0 0 1 9.1527857,14.259457 0.52292478,0.61525568 0 0 1 9.6757106,13.644201 Z"
     id="path1"
     style="fill:#cdb3de;fill-opacity:1;stroke:none;stroke-width:0;stroke-dasharray:none" /></svg>
